<svg width="149" height="45" viewBox="0 0 149 45" fill="none" xmlns="http://www.w3.org/2000/svg">
<rect x="0.5" y="1.2998" width="147.5" height="43" rx="4.5" fill="white"/>
<rect x="0.5" y="1.2998" width="147.5" height="43" rx="4.5" stroke="black"/>
<path d="M74.9496 24.726C72.3624 24.726 70.2537 26.6939 70.2537 29.4043C70.2537 32.0982 72.3624 34.0826 74.9496 34.0826C77.5379 34.0826 79.6466 32.0982 79.6466 29.4043C79.6455 26.6939 77.5368 24.726 74.9496 24.726ZM74.9496 32.2412C73.5317 32.2412 72.3096 31.0719 72.3096 29.4054C72.3096 27.7213 73.5328 26.5696 74.9496 26.5696C76.3675 26.5696 77.5896 27.7213 77.5896 29.4054C77.5896 31.0708 76.3675 32.2412 74.9496 32.2412ZM64.7042 24.726C62.117 24.726 60.0083 26.6939 60.0083 29.4043C60.0083 32.0982 62.117 34.0826 64.7042 34.0826C67.2925 34.0826 69.4012 32.0982 69.4012 29.4043C69.4012 26.6939 67.2925 24.726 64.7042 24.726ZM64.7042 32.2412C63.2863 32.2412 62.0642 31.0719 62.0642 29.4054C62.0642 27.7213 63.2874 26.5696 64.7042 26.5696C66.1221 26.5696 67.3442 27.7213 67.3442 29.4054C67.3453 31.0708 66.1221 32.2412 64.7042 32.2412ZM52.5184 26.1626V28.147H57.2682C57.1263 29.2635 56.7545 30.0786 56.1869 30.6451C55.4961 31.3359 54.4148 32.0982 52.5184 32.0982C49.5946 32.0982 47.3088 29.7409 47.3088 26.8171C47.3088 23.8933 49.5946 21.536 52.5184 21.536C54.0958 21.536 55.2475 22.1564 56.0978 22.9539L57.4981 21.5536C56.3101 20.4195 54.7338 19.5516 52.5184 19.5516C48.5133 19.5516 45.1462 22.812 45.1462 26.8171C45.1462 30.8222 48.5133 34.0826 52.5184 34.0826C54.6799 34.0826 56.3112 33.3731 57.5861 32.0443C58.8973 30.7331 59.3054 28.8895 59.3054 27.4012C59.3054 26.9414 59.2702 26.5157 59.1987 26.1615H52.5184V26.1626ZM102.357 27.7037C101.968 26.6587 100.78 24.726 98.3521 24.726C95.942 24.726 93.9389 26.6224 93.9389 29.4043C93.9389 32.0267 95.9244 34.0826 98.582 34.0826C100.726 34.0826 101.967 32.7714 102.482 32.0091L100.887 30.9454C100.355 31.7253 99.6281 32.239 98.582 32.239C97.537 32.239 96.7923 31.7605 96.3138 30.8211L102.57 28.2339L102.357 27.7037ZM95.9772 29.2635C95.9244 27.4551 97.3775 26.5344 98.4236 26.5344C99.2387 26.5344 99.9295 26.9425 100.161 27.5266L95.9772 29.2635ZM90.8919 33.7999H92.9467V20.0488H90.8919V33.7999ZM87.5237 25.7721H87.4533C86.9924 25.2221 86.1058 24.726 84.9904 24.726C82.6507 24.726 80.5068 26.7819 80.5068 29.423C80.5068 32.0454 82.6507 34.0837 84.9904 34.0837C86.1069 34.0837 86.9924 33.5876 87.4533 33.0211H87.5237V33.6943C87.5237 35.484 86.5667 36.441 85.0256 36.441C83.7672 36.441 82.9873 35.5379 82.6683 34.7756L80.8786 35.5203C81.3923 36.76 82.7563 38.2846 85.0256 38.2846C87.4357 38.2846 89.474 36.8667 89.474 33.4105V25.0109H87.5248V25.7721H87.5237ZM85.1675 32.2412C83.7496 32.2412 82.5627 31.0532 82.5627 29.423C82.5627 27.7741 83.7496 26.5696 85.1675 26.5696C86.5667 26.5696 87.6656 27.7741 87.6656 29.423C87.6656 31.0532 86.5667 32.2412 85.1675 32.2412ZM111.987 20.0488H107.069V33.7999H109.12V28.5903H111.986C114.26 28.5903 116.498 26.9436 116.498 24.3201C116.498 21.6966 114.261 20.0488 111.987 20.0488ZM112.039 26.6763H109.12V21.9628H112.039C113.574 21.9628 114.445 23.2333 114.445 24.3201C114.445 25.3849 113.574 26.6763 112.039 26.6763ZM124.725 24.7018C123.239 24.7018 121.7 25.3563 121.063 26.8072L122.884 27.5673C123.274 26.8072 124 26.5586 124.76 26.5586C125.821 26.5586 126.9 27.1955 126.918 28.3274V28.4693C126.546 28.257 125.75 27.9391 124.777 27.9391C122.814 27.9391 120.814 29.0182 120.814 31.0345C120.814 32.8748 122.425 34.0595 124.229 34.0595C125.608 34.0595 126.369 33.4402 126.847 32.7142H126.917V33.7757H128.899V28.5034C128.9 26.0636 127.076 24.7018 124.725 24.7018ZM124.476 32.2379C123.805 32.2379 122.867 31.9013 122.867 31.0697C122.867 30.0082 124.035 29.6012 125.044 29.6012C125.945 29.6012 126.37 29.7959 126.918 30.061C126.759 31.3359 125.662 32.2379 124.476 32.2379ZM136.117 25.0021L133.764 30.9641H133.694L131.252 25.0021H129.041L132.703 33.3346L130.615 37.97H132.756L138.4 25.0021H136.117ZM117.631 33.7999H119.682V20.0488H117.631V33.7999Z" fill="black"/>
<path d="M52.1599 12.0671C52.1599 12.9889 51.8871 13.7226 51.3404 14.2704C50.72 14.9216 49.9104 15.2472 48.916 15.2472C47.9634 15.2472 47.1527 14.9172 46.4872 14.2572C45.8206 13.5961 45.4873 12.7777 45.4873 11.8009C45.4873 10.823 45.8206 10.0046 46.4872 9.34457C47.1527 8.68347 47.9634 8.35347 48.916 8.35347C49.389 8.35347 49.8411 8.44587 50.2701 8.62957C50.7002 8.81437 51.0445 9.05967 51.3019 9.36657L50.7222 9.94737C50.2855 9.42487 49.6838 9.16417 48.9149 9.16417C48.2197 9.16417 47.6191 9.40837 47.112 9.89677C46.6049 10.3852 46.3519 11.0199 46.3519 11.7998C46.3519 12.5797 46.6049 13.2144 47.112 13.7028C47.6191 14.1912 48.2197 14.4354 48.9149 14.4354C49.6519 14.4354 50.2668 14.1901 50.7585 13.6984C51.0775 13.3783 51.2623 12.9328 51.3118 12.3619H48.9149V11.5688H52.1126C52.1456 11.7415 52.1599 11.9076 52.1599 12.0671Z" fill="black"/>
<path d="M57.231 9.31053H54.2258V11.4027H56.9362V12.1958H54.2258V14.288H57.231V15.0998H53.3777V8.49983H57.231V9.31053Z" fill="black"/>
<path d="M60.807 15.0998H59.9589V9.31053H58.1153V8.49983H62.6506V9.31053H60.807V15.0998Z" fill="black"/>
<path d="M65.9318 15.0998V8.49983H66.7799V15.0998H65.9318Z" fill="black"/>
<path d="M70.541 15.0998H69.6929V9.31053H67.8493V8.49983H72.3846V9.31053H70.541V15.0998Z" fill="black"/>
<path d="M80.9699 14.2473C80.3209 14.9139 79.5146 15.2472 78.5499 15.2472C77.5852 15.2472 76.7789 14.9139 76.131 14.2473C75.482 13.5807 75.1586 12.7645 75.1586 11.7998C75.1586 10.8351 75.482 10.0189 76.131 9.35232C76.7789 8.68572 77.5852 8.35132 78.5499 8.35132C79.5091 8.35132 80.3143 8.68682 80.9655 9.35672C81.6167 10.0266 81.9423 10.8406 81.9423 11.7998C81.9423 12.7645 81.6178 13.5807 80.9699 14.2473ZM76.7569 13.694C77.2453 14.189 77.8426 14.4354 78.5499 14.4354C79.2572 14.4354 79.8556 14.1879 80.3429 13.694C80.8313 13.199 81.0766 12.5676 81.0766 11.7998C81.0766 11.032 80.8313 10.4006 80.3429 9.90562C79.8556 9.41062 79.2572 9.16422 78.5499 9.16422C77.8426 9.16422 77.2453 9.41172 76.7569 9.90562C76.2696 10.4006 76.0243 11.032 76.0243 11.7998C76.0243 12.5676 76.2696 13.199 76.7569 13.694Z" fill="black"/>
<path d="M83.1325 15.0998V8.49983H84.1643L87.3719 13.6335H87.4082L87.3719 12.3619V8.49983H88.22V15.0998H87.3345L83.9784 9.71643H83.9421L83.9784 10.988V15.0998H83.1325Z" fill="black"/>
<path d="M52.1599 12.0671C52.1599 12.9889 51.8871 13.7226 51.3404 14.2704C50.72 14.9216 49.9104 15.2472 48.916 15.2472C47.9634 15.2472 47.1527 14.9172 46.4872 14.2572C45.8206 13.5961 45.4873 12.7777 45.4873 11.8009C45.4873 10.823 45.8206 10.0046 46.4872 9.34457C47.1527 8.68347 47.9634 8.35347 48.916 8.35347C49.389 8.35347 49.8411 8.44587 50.2701 8.62957C50.7002 8.81437 51.0445 9.05967 51.3019 9.36657L50.7222 9.94737C50.2855 9.42487 49.6838 9.16417 48.9149 9.16417C48.2197 9.16417 47.6191 9.40837 47.112 9.89677C46.6049 10.3852 46.3519 11.0199 46.3519 11.7998C46.3519 12.5797 46.6049 13.2144 47.112 13.7028C47.6191 14.1912 48.2197 14.4354 48.9149 14.4354C49.6519 14.4354 50.2668 14.1901 50.7585 13.6984C51.0775 13.3783 51.2623 12.9328 51.3118 12.3619H48.9149V11.5688H52.1126C52.1456 11.7415 52.1599 11.9076 52.1599 12.0671Z" stroke="black" stroke-width="0.2" stroke-miterlimit="10"/>
<path d="M57.231 9.31053H54.2258V11.4027H56.9362V12.1958H54.2258V14.288H57.231V15.0998H53.3777V8.49983H57.231V9.31053Z" stroke="black" stroke-width="0.2" stroke-miterlimit="10"/>
<path d="M60.807 15.0998H59.9589V9.31053H58.1153V8.49983H62.6506V9.31053H60.807V15.0998Z" stroke="black" stroke-width="0.2" stroke-miterlimit="10"/>
<path d="M65.9318 15.0998V8.49983H66.7799V15.0998H65.9318Z" stroke="black" stroke-width="0.2" stroke-miterlimit="10"/>
<path d="M70.541 15.0998H69.6929V9.31053H67.8493V8.49983H72.3846V9.31053H70.541V15.0998Z" stroke="black" stroke-width="0.2" stroke-miterlimit="10"/>
<path d="M80.9699 14.2473C80.3209 14.9139 79.5146 15.2472 78.5499 15.2472C77.5852 15.2472 76.7789 14.9139 76.131 14.2473C75.482 13.5807 75.1586 12.7645 75.1586 11.7998C75.1586 10.8351 75.482 10.0189 76.131 9.35232C76.7789 8.68572 77.5852 8.35132 78.5499 8.35132C79.5091 8.35132 80.3143 8.68682 80.9655 9.35672C81.6167 10.0266 81.9423 10.8406 81.9423 11.7998C81.9423 12.7645 81.6178 13.5807 80.9699 14.2473ZM76.7569 13.694C77.2453 14.189 77.8426 14.4354 78.5499 14.4354C79.2572 14.4354 79.8556 14.1879 80.3429 13.694C80.8313 13.199 81.0766 12.5676 81.0766 11.7998C81.0766 11.032 80.8313 10.4006 80.3429 9.90562C79.8556 9.41062 79.2572 9.16422 78.5499 9.16422C77.8426 9.16422 77.2453 9.41172 76.7569 9.90562C76.2696 10.4006 76.0243 11.032 76.0243 11.7998C76.0243 12.5676 76.2696 13.199 76.7569 13.694Z" stroke="black" stroke-width="0.2" stroke-miterlimit="10"/>
<path d="M83.1325 15.0998V8.49983H84.1643L87.3719 13.6335H87.4082L87.3719 12.3619V8.49983H88.22V15.0998H87.3345L83.9784 9.71643H83.9421L83.9784 10.988V15.0998H83.1325Z" stroke="black" stroke-width="0.2" stroke-miterlimit="10"/>
<path fill-rule="evenodd" clip-rule="evenodd" d="M11.1943 9.51441C11.0503 9.81721 10.9703 10.1944 10.9703 10.6371V34.9647C10.9703 35.4083 11.0504 35.7855 11.1945 36.0881L24.4803 22.8004L11.1943 9.51441ZM11.8881 36.8088C12.3847 37.0448 13.0442 36.9874 13.7654 36.5784L29.3833 27.7035L25.1874 23.5076L11.8881 36.8088ZM30.2858 27.1918L35.2165 24.3904C36.7532 23.5159 36.7532 22.087 35.2165 21.2136L30.2837 18.4106L25.8945 22.8004L30.2858 27.1918ZM29.3819 17.8982L13.7654 9.02447C13.0441 8.61457 12.3846 8.5576 11.888 8.79392L25.1874 22.0933L29.3819 17.8982Z" fill="black"/>
</svg>
