<svg width="149" height="45" viewBox="0 0 149 45" fill="none" xmlns="http://www.w3.org/2000/svg">
<rect x="0.5" y="1.2998" width="147.5" height="43" rx="6.5" fill="white"/>
<rect x="0.5" y="1.2998" width="147.5" height="43" rx="6.5" stroke="black"/>
<path d="M100.888 21.9208V24.4409H99.1112V26.0936H100.888V31.7091C100.888 33.6266 101.864 34.3936 104.319 34.3936C104.751 34.3936 105.162 34.3479 105.521 34.2931V32.6587C105.213 32.6861 105.018 32.7044 104.679 32.7044C103.58 32.7044 103.097 32.2478 103.097 31.2069V26.0936H105.521V24.4409H103.097V21.9208H100.888Z" fill="black"/>
<path d="M111.775 34.5305C115.042 34.5305 117.045 32.5857 117.045 29.3625C117.045 26.1575 115.031 24.2035 111.775 24.2035C108.509 24.2035 106.495 26.1575 106.495 29.3625C106.495 32.5857 108.498 34.5305 111.775 34.5305ZM111.775 32.7865C109.854 32.7865 108.776 31.5356 108.776 29.3625C108.776 27.2076 109.854 25.9475 111.775 25.9475C113.686 25.9475 114.775 27.2076 114.775 29.3625C114.775 31.5265 113.686 32.7865 111.775 32.7865Z" fill="black"/>
<path d="M118.759 34.3388H120.967V28.4676C120.967 27.0706 122.148 26.1301 123.823 26.1301C124.213 26.1301 124.871 26.1941 125.056 26.2489V24.3131C124.819 24.2583 124.398 24.2309 124.069 24.2309C122.611 24.2309 121.368 24.9431 121.049 25.9201H120.885V24.3953H118.759V34.3388Z" fill="black"/>
<path d="M130.539 25.8745C132.173 25.8745 133.241 26.888 133.292 28.4494H127.642C127.766 26.8971 128.906 25.8745 130.539 25.8745ZM133.282 31.6543C132.871 32.4304 131.957 32.8596 130.621 32.8596C128.855 32.8596 127.714 31.7548 127.642 30.0108V29.9012H135.542V29.2164C135.542 26.0936 133.662 24.2035 130.549 24.2035C127.396 24.2035 125.393 26.2215 125.393 29.399C125.393 32.5765 127.355 34.5305 130.56 34.5305C133.118 34.5305 134.905 33.4348 135.408 31.6543H133.282Z" fill="black"/>
<path d="M86.4051 30.6668C86.5754 33.1085 88.8645 34.67 92.2715 34.67C95.9127 34.67 98.1911 33.0328 98.1911 30.4208C98.1911 28.3671 96.8922 27.2314 93.7408 26.5784L92.0479 26.2093C90.0463 25.7929 89.2371 25.2346 89.2371 24.2598C89.2371 23.0295 90.4935 22.225 92.378 22.225C94.1666 22.225 95.4017 23.0105 95.6253 24.2692H97.9463C97.8079 21.9695 95.5294 20.3512 92.4099 20.3512C89.0562 20.3512 86.8203 21.9695 86.8203 24.4017C86.8203 26.4081 88.0873 27.6005 90.8661 28.1778L92.8464 28.6037C94.88 29.0296 95.7743 29.6542 95.7743 30.6952C95.7743 31.9066 94.3689 32.7867 92.4525 32.7867C90.3977 32.7867 88.971 31.9634 88.7687 30.6668H86.4051Z" fill="black"/>
<path d="M63.527 24.2309C62.0067 24.2309 60.6919 24.9066 60.0139 26.0388H59.8496V24.3953H57.7232V37.6442H59.9317V32.8322H60.1064C60.6919 33.8822 61.9554 34.5031 63.5476 34.5031C66.3724 34.5031 68.17 32.5218 68.17 29.3625C68.17 26.2032 66.3724 24.2309 63.527 24.2309ZM62.9004 32.7409C61.0514 32.7409 59.8906 31.4443 59.8906 29.3716C59.8906 27.2898 61.0514 25.9932 62.9107 25.9932C64.7802 25.9932 65.8999 27.2624 65.8999 29.3625C65.8999 31.4717 64.7802 32.7409 62.9004 32.7409Z" fill="black"/>
<path d="M75.898 24.2309C74.3778 24.2309 73.0629 24.9066 72.3849 26.0388H72.2206V24.3953H70.0942V37.6442H72.3028V32.8322H72.4774C73.0629 33.8822 74.3264 34.5031 75.9186 34.5031C78.7434 34.5031 80.5411 32.5218 80.5411 29.3625C80.5411 26.2032 78.7434 24.2309 75.898 24.2309ZM75.2714 32.7409C73.4224 32.7409 72.2617 31.4443 72.2617 29.3716C72.2617 27.2898 73.4224 25.9932 75.2817 25.9932C77.1513 25.9932 78.2709 27.2624 78.2709 29.3625C78.2709 31.4717 77.1513 32.7409 75.2714 32.7409Z" fill="black"/>
<path d="M53.7607 34.3388H56.2947L50.7477 20.6824H48.1818L42.6348 34.3388H45.0835L46.4996 30.7141H52.3553L53.7607 34.3388ZM49.3423 23.162H49.5233L51.7485 28.9349H47.1064L49.3423 23.162Z" fill="black"/>
<path d="M44.1183 10.3819V16.9698H46.7942C49.0027 16.9698 50.2816 15.76 50.2816 13.6553C50.2816 11.5826 48.9925 10.3819 46.7942 10.3819H44.1183ZM45.2688 11.3132H46.6658C48.2015 11.3132 49.1106 12.1807 49.1106 13.669C49.1106 15.1802 48.2169 16.0385 46.6658 16.0385H45.2688V11.3132Z" fill="black"/>
<path d="M54.1984 17.0657C55.8317 17.0657 56.8332 16.0932 56.8332 14.4816C56.8332 12.8792 55.8266 11.9022 54.1984 11.9022C52.5651 11.9022 51.5585 12.8792 51.5585 14.4816C51.5585 16.0932 52.56 17.0657 54.1984 17.0657ZM54.1984 16.1937C53.238 16.1937 52.6987 15.5682 52.6987 14.4816C52.6987 13.4042 53.238 12.7742 54.1984 12.7742C55.1537 12.7742 55.6982 13.4042 55.6982 14.4816C55.6982 15.5636 55.1537 16.1937 54.1984 16.1937Z" fill="black"/>
<path d="M65.3623 11.998H64.258L63.2616 15.7919H63.1743L62.0238 11.998H60.9658L59.8153 15.7919H59.7331L58.7315 11.998H57.6119L59.1527 16.9698H60.2878L61.4383 13.3083H61.5256L62.6812 16.9698H63.8266L65.3623 11.998Z" fill="black"/>
<path d="M66.634 16.9698H67.7382V14.0616C67.7382 13.2855 68.257 12.8016 69.0736 12.8016C69.8903 12.8016 70.2806 13.1988 70.2806 13.9977V16.9698H71.3849V13.7512C71.3849 12.5687 70.6966 11.9022 69.4485 11.9022C68.6062 11.9022 68.0515 12.2354 67.7793 12.7879H67.6971V11.998H66.634V16.9698Z" fill="black"/>
<path d="M73.1239 16.9698H74.2282V10.0577H73.1239V16.9698Z" fill="black"/>
<path d="M78.3813 17.0657C80.0146 17.0657 81.0161 16.0932 81.0161 14.4816C81.0161 12.8792 80.0094 11.9022 78.3813 11.9022C76.748 11.9022 75.7413 12.8792 75.7413 14.4816C75.7413 16.0932 76.7429 17.0657 78.3813 17.0657ZM78.3813 16.1937C77.4208 16.1937 76.8815 15.5682 76.8815 14.4816C76.8815 13.4042 77.4208 12.7742 78.3813 12.7742C79.3366 12.7742 79.881 13.4042 79.881 14.4816C79.881 15.5636 79.3366 16.1937 78.3813 16.1937Z" fill="black"/>
<path d="M84.3063 16.2256C83.7054 16.2256 83.2688 15.9654 83.2688 15.518C83.2688 15.0797 83.618 14.8469 84.3885 14.8012L85.7547 14.7236V15.1391C85.7547 15.7554 85.1383 16.2256 84.3063 16.2256ZM84.0238 17.052C84.7583 17.052 85.3695 16.7689 85.7033 16.2713H85.7906V16.9698H86.8538V13.5731C86.8538 12.5231 86.0628 11.9022 84.6607 11.9022C83.3921 11.9022 82.4881 12.45 82.3751 13.3038H83.4434C83.5667 12.9522 83.993 12.7513 84.6093 12.7513C85.3643 12.7513 85.7547 13.0481 85.7547 13.5731V14.0023L84.2395 14.0799C82.9093 14.1529 82.1594 14.6688 82.1594 15.5636C82.1594 16.4722 82.9452 17.052 84.0238 17.052Z" fill="black"/>
<path d="M90.6011 17.052C91.3715 17.052 92.0238 16.7278 92.3576 16.1845H92.445V16.9698H93.503V10.0577H92.3987V12.7879H92.3166C92.0135 12.24 91.3664 11.9159 90.6011 11.9159C89.1887 11.9159 88.2796 12.9111 88.2796 14.4816C88.2796 16.0567 89.1784 17.052 90.6011 17.052ZM90.9144 12.797C91.8389 12.797 92.4193 13.4499 92.4193 14.4862C92.4193 15.5271 91.844 16.1708 90.9144 16.1708C89.9796 16.1708 89.4198 15.5363 89.4198 14.4816C89.4198 13.4362 89.9848 12.797 90.9144 12.797Z" fill="black"/>
<path d="M100.664 17.0657C102.297 17.0657 103.299 16.0932 103.299 14.4816C103.299 12.8792 102.292 11.9022 100.664 11.9022C99.0305 11.9022 98.0238 12.8792 98.0238 14.4816C98.0238 16.0932 99.0253 17.0657 100.664 17.0657ZM100.664 16.1937C99.7033 16.1937 99.164 15.5682 99.164 14.4816C99.164 13.4042 99.7033 12.7742 100.664 12.7742C101.619 12.7742 102.164 13.4042 102.164 14.4816C102.164 15.5636 101.619 16.1937 100.664 16.1937Z" fill="black"/>
<path d="M104.76 16.9698H105.865V14.0616C105.865 13.2855 106.383 12.8016 107.2 12.8016C108.017 12.8016 108.407 13.1988 108.407 13.9977V16.9698H109.511V13.7512C109.511 12.5687 108.823 11.9022 107.575 11.9022C106.733 11.9022 106.178 12.2354 105.906 12.7879H105.824V11.998H104.76V16.9698Z" fill="black"/>
<path d="M114.597 10.7608V12.0209H113.708V12.8472H114.597V15.655C114.597 16.6137 115.085 16.9972 116.312 16.9972C116.528 16.9972 116.734 16.9744 116.913 16.947V16.1298C116.759 16.1435 116.662 16.1526 116.492 16.1526C115.943 16.1526 115.701 15.9243 115.701 15.4039V12.8472H116.913V12.0209H115.701V10.7608H114.597Z" fill="black"/>
<path d="M118.396 16.9698H119.5V14.0662C119.5 13.3129 120.003 12.8061 120.907 12.8061C121.688 12.8061 122.104 13.2079 122.104 14.0023V16.9698H123.208V13.7603C123.208 12.5779 122.474 11.9067 121.282 11.9067C120.44 11.9067 119.849 12.24 119.577 12.797H119.49V10.0577H118.396V16.9698Z" fill="black"/>
<path d="M127.192 12.7376C128.008 12.7376 128.543 13.2444 128.568 14.0251H125.743C125.805 13.249 126.375 12.7376 127.192 12.7376ZM128.563 15.6276C128.358 16.0156 127.901 16.2302 127.233 16.2302C126.349 16.2302 125.779 15.6778 125.743 14.8058V14.751H129.693V14.4086C129.693 12.8472 128.753 11.9022 127.197 11.9022C125.62 11.9022 124.619 12.9111 124.619 14.4999C124.619 16.0887 125.6 17.0657 127.202 17.0657C128.481 17.0657 129.375 16.5178 129.626 15.6276H128.563Z" fill="black"/>
<path d="M30.6516 23.1307C30.6784 21.2816 31.7956 19.532 33.5679 18.5635C32.4498 17.1441 30.5772 16.2442 28.6288 16.19C26.5508 15.9961 24.5362 17.2953 23.4772 17.2953C22.3978 17.2953 20.7674 16.2093 19.0117 16.2414C16.7233 16.3071 14.5899 17.4636 13.4765 19.242C11.0832 22.9253 12.8684 28.3384 15.161 31.3157C16.308 32.7736 17.6486 34.4021 19.4027 34.3443C21.1191 34.2811 21.7602 33.3714 23.8322 33.3714C25.8849 33.3714 26.4863 34.3443 28.276 34.3076C30.1179 34.2811 31.2784 32.8433 32.3852 31.3716C33.2093 30.3328 33.8435 29.1847 34.2642 27.9698C32.0997 27.156 30.6542 25.2198 30.6516 23.1307Z" fill="black"/>
<path d="M27.2712 14.232C28.2755 13.1604 28.7702 11.783 28.6504 10.3923C27.1161 10.5356 25.6989 11.1874 24.681 12.2179C23.6857 13.2248 23.1678 14.5779 23.2657 15.9154C24.8005 15.9295 26.3094 15.2953 27.2712 14.232Z" fill="black"/>
</svg>
