<svg width="150" height="44" viewBox="0 0 150 44" fill="none" xmlns="http://www.w3.org/2000/svg">
<rect x="1.25" y="0.5" width="147.5" height="43" rx="4.5" fill="black"/>
<rect x="1.25" y="0.5" width="147.5" height="43" rx="4.5" stroke="#A6A6A6"/>
<path d="M75.6979 23.9264C73.1107 23.9264 71.002 25.8943 71.002 28.6047C71.002 31.2986 73.1107 33.283 75.6979 33.283C78.2862 33.283 80.3949 31.2986 80.3949 28.6047C80.3938 25.8943 78.2851 23.9264 75.6979 23.9264ZM75.6979 31.4416C74.28 31.4416 73.0579 30.2723 73.0579 28.6058C73.0579 26.9217 74.2811 25.77 75.6979 25.77C77.1158 25.77 78.3379 26.9217 78.3379 28.6058C78.3379 30.2712 77.1158 31.4416 75.6979 31.4416ZM65.4525 23.9264C62.8653 23.9264 60.7566 25.8943 60.7566 28.6047C60.7566 31.2986 62.8653 33.283 65.4525 33.283C68.0408 33.283 70.1495 31.2986 70.1495 28.6047C70.1495 25.8943 68.0408 23.9264 65.4525 23.9264ZM65.4525 31.4416C64.0346 31.4416 62.8125 30.2723 62.8125 28.6058C62.8125 26.9217 64.0357 25.77 65.4525 25.77C66.8704 25.77 68.0925 26.9217 68.0925 28.6058C68.0936 30.2712 66.8704 31.4416 65.4525 31.4416ZM53.2667 25.363V27.3474H58.0165C57.8746 28.4639 57.5028 29.279 56.9352 29.8455C56.2444 30.5363 55.1631 31.2986 53.2667 31.2986C50.3429 31.2986 48.0571 28.9413 48.0571 26.0175C48.0571 23.0937 50.3429 20.7364 53.2667 20.7364C54.8441 20.7364 55.9958 21.3568 56.8461 22.1543L58.2464 20.754C57.0584 19.6199 55.4821 18.752 53.2667 18.752C49.2616 18.752 45.8945 22.0124 45.8945 26.0175C45.8945 30.0226 49.2616 33.283 53.2667 33.283C55.4282 33.283 57.0595 32.5735 58.3344 31.2447C59.6456 29.9335 60.0537 28.0899 60.0537 26.6016C60.0537 26.1418 60.0185 25.7161 59.947 25.3619H53.2667V25.363ZM103.106 26.9041C102.716 25.8591 101.528 23.9264 99.1004 23.9264C96.6903 23.9264 94.6872 25.8228 94.6872 28.6047C94.6872 31.2271 96.6727 33.283 99.3303 33.283C101.474 33.283 102.715 31.9718 103.23 31.2095L101.635 30.1458C101.104 30.9257 100.376 31.4394 99.3303 31.4394C98.2853 31.4394 97.5406 30.9609 97.0621 30.0215L103.318 27.4343L103.106 26.9041ZM96.7255 28.4639C96.6727 26.6555 98.1258 25.7348 99.1719 25.7348C99.987 25.7348 100.678 26.1429 100.909 26.727L96.7255 28.4639ZM91.6402 33.0003H93.695V19.2492H91.6402V33.0003ZM88.272 24.9725H88.2016C87.7407 24.4225 86.8541 23.9264 85.7387 23.9264C83.399 23.9264 81.2551 25.9823 81.2551 28.6234C81.2551 31.2458 83.399 33.2841 85.7387 33.2841C86.8552 33.2841 87.7407 32.788 88.2016 32.2215H88.272V32.8947C88.272 34.6844 87.315 35.6414 85.7739 35.6414C84.5155 35.6414 83.7356 34.7383 83.4166 33.976L81.6269 34.7207C82.1406 35.9604 83.5046 37.485 85.7739 37.485C88.184 37.485 90.2223 36.0671 90.2223 32.6109V24.2113H88.2731V24.9725H88.272ZM85.9158 31.4416C84.4979 31.4416 83.311 30.2536 83.311 28.6234C83.311 26.9745 84.4979 25.77 85.9158 25.77C87.315 25.77 88.4139 26.9745 88.4139 28.6234C88.4139 30.2536 87.315 31.4416 85.9158 31.4416ZM112.735 19.2492H107.817V33.0003H109.868V27.7907H112.734C115.009 27.7907 117.246 26.144 117.246 23.5205C117.246 20.897 115.01 19.2492 112.735 19.2492ZM112.788 25.8767H109.868V21.1632H112.788C114.322 21.1632 115.193 22.4337 115.193 23.5205C115.193 24.5853 114.322 25.8767 112.788 25.8767ZM125.473 23.9022C123.987 23.9022 122.448 24.5567 121.811 26.0076L123.633 26.7677C124.022 26.0076 124.748 25.759 125.508 25.759C126.57 25.759 127.649 26.3959 127.666 27.5278V27.6697C127.295 27.4574 126.498 27.1395 125.526 27.1395C123.562 27.1395 121.562 28.2186 121.562 30.2349C121.562 32.0752 123.173 33.2599 124.977 33.2599C126.356 33.2599 127.117 32.6406 127.595 31.9146H127.665V32.9761H129.647V27.7038C129.649 25.264 127.825 23.9022 125.473 23.9022ZM125.224 31.4383C124.553 31.4383 123.615 31.1017 123.615 30.2701C123.615 29.2086 124.783 28.8016 125.792 28.8016C126.693 28.8016 127.119 28.9963 127.666 29.2614C127.507 30.5363 126.41 31.4383 125.224 31.4383ZM136.866 24.2025L134.513 30.1645H134.442L132 24.2025H129.789L133.451 32.535L131.363 37.1704H133.504L139.148 24.2025H136.866ZM118.379 33.0003H120.431V19.2492H118.379V33.0003Z" fill="white"/>
<path d="M52.9109 11.2675C52.9109 12.1893 52.6381 12.923 52.0914 13.4708C51.471 14.122 50.6614 14.4476 49.667 14.4476C48.7144 14.4476 47.9037 14.1176 47.2382 13.4576C46.5716 12.7965 46.2383 11.9781 46.2383 11.0013C46.2383 10.0234 46.5716 9.20501 47.2382 8.54501C47.9037 7.88391 48.7144 7.55391 49.667 7.55391C50.14 7.55391 50.5921 7.64631 51.0211 7.83001C51.4512 8.01481 51.7955 8.26011 52.0529 8.56701L51.4732 9.14781C51.0365 8.62531 50.4348 8.36461 49.6659 8.36461C48.9707 8.36461 48.3701 8.60881 47.863 9.09721C47.3559 9.58561 47.1029 10.2203 47.1029 11.0002C47.1029 11.7801 47.3559 12.4148 47.863 12.9032C48.3701 13.3916 48.9707 13.6358 49.6659 13.6358C50.4029 13.6358 51.0178 13.3905 51.5095 12.8988C51.8285 12.5787 52.0133 12.1332 52.0628 11.5623H49.6659V10.7692H52.8636C52.8966 10.9419 52.9109 11.108 52.9109 11.2675Z" fill="white"/>
<path d="M57.982 8.51097H54.9768V10.6032H57.6872V11.3963H54.9768V13.4885H57.982V14.3003H54.1287V7.70027H57.982V8.51097Z" fill="white"/>
<path d="M61.558 14.3003H60.7099V8.51097H58.8663V7.70027H63.4016V8.51097H61.558V14.3003Z" fill="white"/>
<path d="M66.6828 14.3003V7.70027H67.5309V14.3003H66.6828Z" fill="white"/>
<path d="M71.292 14.3003H70.4439V8.51097H68.6003V7.70027H73.1356V8.51097H71.292V14.3003Z" fill="white"/>
<path d="M81.7208 13.4478C81.0718 14.1144 80.2655 14.4477 79.3008 14.4477C78.3361 14.4477 77.5298 14.1144 76.8819 13.4478C76.2329 12.7812 75.9095 11.965 75.9095 11.0003C75.9095 10.0356 76.2329 9.21936 76.8819 8.55276C77.5298 7.88616 78.3361 7.55176 79.3008 7.55176C80.26 7.55176 81.0653 7.88726 81.7164 8.55716C82.3676 9.22706 82.6932 10.0411 82.6932 11.0003C82.6932 11.965 82.3687 12.7812 81.7208 13.4478ZM77.5078 12.8945C77.9962 13.3895 78.5935 13.6359 79.3008 13.6359C80.0081 13.6359 80.6065 13.3884 81.0938 12.8945C81.5822 12.3995 81.8275 11.7681 81.8275 11.0003C81.8275 10.2325 81.5822 9.60106 81.0938 9.10606C80.6065 8.61106 80.0081 8.36466 79.3008 8.36466C78.5935 8.36466 77.9962 8.61216 77.5078 9.10606C77.0205 9.60106 76.7752 10.2325 76.7752 11.0003C76.7752 11.7681 77.0205 12.3995 77.5078 12.8945Z" fill="white"/>
<path d="M83.8835 14.3003V7.70027H84.9153L88.1229 12.834H88.1592L88.1229 11.5624V7.70027H88.971V14.3003H88.0855L84.7294 8.91687H84.6931L84.7294 10.1885V14.3003H83.8835Z" fill="white"/>
<path d="M52.9109 11.2675C52.9109 12.1893 52.6381 12.923 52.0914 13.4708C51.471 14.122 50.6614 14.4476 49.667 14.4476C48.7144 14.4476 47.9037 14.1176 47.2382 13.4576C46.5716 12.7965 46.2383 11.9781 46.2383 11.0013C46.2383 10.0234 46.5716 9.20501 47.2382 8.54501C47.9037 7.88391 48.7144 7.55391 49.667 7.55391C50.14 7.55391 50.5921 7.64631 51.0211 7.83001C51.4512 8.01481 51.7955 8.26011 52.0529 8.56701L51.4732 9.14781C51.0365 8.62531 50.4348 8.36461 49.6659 8.36461C48.9707 8.36461 48.3701 8.60881 47.863 9.09721C47.3559 9.58561 47.1029 10.2203 47.1029 11.0002C47.1029 11.7801 47.3559 12.4148 47.863 12.9032C48.3701 13.3916 48.9707 13.6358 49.6659 13.6358C50.4029 13.6358 51.0178 13.3905 51.5095 12.8988C51.8285 12.5787 52.0133 12.1332 52.0628 11.5623H49.6659V10.7692H52.8636C52.8966 10.9419 52.9109 11.108 52.9109 11.2675Z" stroke="white" stroke-width="0.2" stroke-miterlimit="10"/>
<path d="M57.982 8.51097H54.9768V10.6032H57.6872V11.3963H54.9768V13.4885H57.982V14.3003H54.1287V7.70027H57.982V8.51097Z" stroke="white" stroke-width="0.2" stroke-miterlimit="10"/>
<path d="M61.558 14.3003H60.7099V8.51097H58.8663V7.70027H63.4016V8.51097H61.558V14.3003Z" stroke="white" stroke-width="0.2" stroke-miterlimit="10"/>
<path d="M66.6828 14.3003V7.70027H67.5309V14.3003H66.6828Z" stroke="white" stroke-width="0.2" stroke-miterlimit="10"/>
<path d="M71.292 14.3003H70.4439V8.51097H68.6003V7.70027H73.1356V8.51097H71.292V14.3003Z" stroke="white" stroke-width="0.2" stroke-miterlimit="10"/>
<path d="M81.7208 13.4478C81.0718 14.1144 80.2655 14.4477 79.3008 14.4477C78.3361 14.4477 77.5298 14.1144 76.8819 13.4478C76.2329 12.7812 75.9095 11.965 75.9095 11.0003C75.9095 10.0356 76.2329 9.21936 76.8819 8.55276C77.5298 7.88616 78.3361 7.55176 79.3008 7.55176C80.26 7.55176 81.0653 7.88726 81.7164 8.55716C82.3676 9.22706 82.6932 10.0411 82.6932 11.0003C82.6932 11.965 82.3687 12.7812 81.7208 13.4478ZM77.5078 12.8945C77.9962 13.3895 78.5935 13.6359 79.3008 13.6359C80.0081 13.6359 80.6065 13.3884 81.0938 12.8945C81.5822 12.3995 81.8275 11.7681 81.8275 11.0003C81.8275 10.2325 81.5822 9.60106 81.0938 9.10606C80.6065 8.61106 80.0081 8.36466 79.3008 8.36466C78.5935 8.36466 77.9962 8.61216 77.5078 9.10606C77.0205 9.60106 76.7752 10.2325 76.7752 11.0003C76.7752 11.7681 77.0205 12.3995 77.5078 12.8945Z" stroke="white" stroke-width="0.2" stroke-miterlimit="10"/>
<path d="M83.8835 14.3003V7.70027H84.9153L88.1229 12.834H88.1592L88.1229 11.5624V7.70027H88.971V14.3003H88.0855L84.7294 8.91687H84.6931L84.7294 10.1885V14.3003H83.8835Z" stroke="white" stroke-width="0.2" stroke-miterlimit="10"/>
<g filter="url(#filter0_ii_1_2054)">
<path d="M12.2281 8.29226C11.908 8.63106 11.7187 9.15686 11.7187 9.83776V34.1654C11.7187 34.8474 11.908 35.3721 12.2281 35.7109L12.3095 35.7901L25.9374 22.1622V22.0016V21.841L12.3095 8.21196L12.2281 8.29226Z" fill="url(#paint0_linear_1_2054)"/>
<path d="M30.4793 26.7062L25.9374 22.1621V22.0015V21.8409L30.4804 17.2979L30.5827 17.3562L35.965 20.4142C37.5017 21.2876 37.5017 22.7165 35.965 23.591L30.5827 26.649L30.4793 26.7062Z" fill="url(#paint1_linear_1_2054)"/>
<g filter="url(#filter1_i_1_2054)">
<path d="M30.5812 26.6484L25.9348 22.002L12.2266 35.7113C12.7326 36.2481 13.5697 36.3141 14.5124 35.7795L30.5812 26.6484Z" fill="url(#paint2_linear_1_2054)"/>
</g>
<path d="M30.5812 17.3552L14.5124 8.22515C13.5697 7.68945 12.7326 7.75655 12.2266 8.29335L25.9359 22.0027L30.5812 17.3552Z" fill="url(#paint3_linear_1_2054)"/>
</g>
<defs>
<filter id="filter0_ii_1_2054" x="11.7188" y="7.85547" width="25.3988" height="28.2932" filterUnits="userSpaceOnUse" color-interpolation-filters="sRGB">
<feFlood flood-opacity="0" result="BackgroundImageFix"/>
<feBlend mode="normal" in="SourceGraphic" in2="BackgroundImageFix" result="shape"/>
<feColorMatrix in="SourceAlpha" type="matrix" values="0 0 0 0 0 0 0 0 0 0 0 0 0 0 0 0 0 0 127 0" result="hardAlpha"/>
<feOffset dy="-0.15"/>
<feComposite in2="hardAlpha" operator="arithmetic" k2="-1" k3="1"/>
<feColorMatrix type="matrix" values="0 0 0 0 0 0 0 0 0 0 0 0 0 0 0 0 0 0 0.12 0"/>
<feBlend mode="normal" in2="shape" result="effect1_innerShadow_1_2054"/>
<feColorMatrix in="SourceAlpha" type="matrix" values="0 0 0 0 0 0 0 0 0 0 0 0 0 0 0 0 0 0 127 0" result="hardAlpha"/>
<feOffset dy="0.15"/>
<feComposite in2="hardAlpha" operator="arithmetic" k2="-1" k3="1"/>
<feColorMatrix type="matrix" values="0 0 0 0 1 0 0 0 0 1 0 0 0 0 1 0 0 0 0.25 0"/>
<feBlend mode="normal" in2="effect1_innerShadow_1_2054" result="effect2_innerShadow_1_2054"/>
</filter>
<filter id="filter1_i_1_2054" x="12.2266" y="22.002" width="18.3546" height="14.1467" filterUnits="userSpaceOnUse" color-interpolation-filters="sRGB">
<feFlood flood-opacity="0" result="BackgroundImageFix"/>
<feBlend mode="normal" in="SourceGraphic" in2="BackgroundImageFix" result="shape"/>
<feColorMatrix in="SourceAlpha" type="matrix" values="0 0 0 0 0 0 0 0 0 0 0 0 0 0 0 0 0 0 127 0" result="hardAlpha"/>
<feOffset dy="-0.15"/>
<feComposite in2="hardAlpha" operator="arithmetic" k2="-1" k3="1"/>
<feColorMatrix type="matrix" values="0 0 0 0 0 0 0 0 0 0 0 0 0 0 0 0 0 0 0.08 0"/>
<feBlend mode="normal" in2="shape" result="effect1_innerShadow_1_2054"/>
</filter>
<linearGradient id="paint0_linear_1_2054" x1="24.7293" y1="9.58036" x2="6.26913" y2="28.0406" gradientUnits="userSpaceOnUse">
<stop stop-color="#00A0FF"/>
<stop offset="0.0066" stop-color="#00A1FF"/>
<stop offset="0.2601" stop-color="#00BEFF"/>
<stop offset="0.5122" stop-color="#00D2FF"/>
<stop offset="0.7604" stop-color="#00DFFF"/>
<stop offset="1" stop-color="#00E3FF"/>
</linearGradient>
<linearGradient id="paint1_linear_1_2054" x1="37.9653" y1="22.0015" x2="11.3498" y2="22.0015" gradientUnits="userSpaceOnUse">
<stop stop-color="#FFE000"/>
<stop offset="0.4087" stop-color="#FFBD00"/>
<stop offset="0.7754" stop-color="#FFA500"/>
<stop offset="1" stop-color="#FF9C00"/>
</linearGradient>
<linearGradient id="paint2_linear_1_2054" x1="28.0579" y1="24.5252" x2="3.02353" y2="49.5596" gradientUnits="userSpaceOnUse">
<stop stop-color="#FF3A44"/>
<stop offset="1" stop-color="#C31162"/>
</linearGradient>
<linearGradient id="paint3_linear_1_2054" x1="8.7741" y1="0.194931" x2="19.9526" y2="11.3735" gradientUnits="userSpaceOnUse">
<stop stop-color="#32A071"/>
<stop offset="0.0685" stop-color="#2DA771"/>
<stop offset="0.4762" stop-color="#15CF74"/>
<stop offset="0.8009" stop-color="#06E775"/>
<stop offset="1" stop-color="#00F076"/>
</linearGradient>
</defs>
</svg>
