<svg width="279" height="279" viewBox="0 0 279 279" fill="none" xmlns="http://www.w3.org/2000/svg">
<rect x="0.748291" y="0.678711" width="278" height="278" rx="90" fill="white"/>
<path d="M64.7483 139.679C64.7483 104.326 64.7483 86.6419 75.7299 75.6603C86.7114 64.6787 104.388 64.6787 139.748 64.6787C175.101 64.6787 192.785 64.6787 203.767 75.6603C214.748 86.6419 214.748 104.318 214.748 139.679C214.748 175.031 214.748 192.716 203.767 203.697C192.785 214.679 175.109 214.679 139.748 214.679C104.396 214.679 86.7114 214.679 75.7299 203.697C64.7483 192.716 64.7483 175.039 64.7483 139.679Z" stroke="black" stroke-width="10" stroke-linecap="round" stroke-linejoin="round"/>
<path d="M183.233 96.2577H183.154M175.275 139.679C175.275 149.101 171.532 158.137 164.869 164.8C158.207 171.462 149.171 175.205 139.748 175.205C130.326 175.205 121.29 171.462 114.628 164.8C107.965 158.137 104.222 149.101 104.222 139.679C104.222 130.257 107.965 121.22 114.628 114.558C121.29 107.895 130.326 104.152 139.748 104.152C149.171 104.152 158.207 107.895 164.869 114.558C171.532 121.22 175.275 130.257 175.275 139.679Z" stroke="black" stroke-width="10" stroke-linecap="round" stroke-linejoin="round"/>
</svg>
