<svg width="14" height="20" viewBox="0 0 14 20" fill="none" xmlns="http://www.w3.org/2000/svg">
<path fill-rule="evenodd" clip-rule="evenodd" d="M9 0.799805C9.26522 0.799805 9.51957 0.905161 9.70711 1.0927C9.89464 1.28023 10 1.53459 10 1.7998C10.0006 2.72173 10.3193 3.61521 10.9023 4.32939C11.4853 5.04357 12.2969 5.53468 13.2 5.7198C13.4599 5.77285 13.6881 5.92697 13.8344 6.14826C13.9807 6.36955 14.033 6.63989 13.98 6.89981C13.927 7.15972 13.7728 7.38791 13.5515 7.53419C13.3303 7.68047 13.0599 7.73285 12.8 7.6798C11.758 7.46685 10.7915 6.98016 10 6.2698V14.7998C10 15.7887 9.70676 16.7554 9.15735 17.5777C8.60794 18.3999 7.82705 19.0408 6.91342 19.4192C5.99979 19.7976 4.99446 19.8967 4.02455 19.7037C3.05465 19.5108 2.16373 19.0346 1.46447 18.3353C0.765206 17.6361 0.289002 16.7452 0.0960759 15.7753C-0.0968503 14.8054 0.00216642 13.8 0.380605 12.8864C0.759043 11.9728 1.39991 11.1919 2.22215 10.6425C3.0444 10.0931 4.0111 9.7998 5 9.7998C5.26522 9.7998 5.51957 9.90516 5.70711 10.0927C5.89465 10.2802 6 10.5346 6 10.7998C6 11.065 5.89465 11.3194 5.70711 11.5069C5.51957 11.6944 5.26522 11.7998 5 11.7998C4.40666 11.7998 3.82664 11.9758 3.33329 12.3054C2.83994 12.635 2.45543 13.1036 2.22836 13.6518C2.0013 14.1999 1.94189 14.8031 2.05765 15.3851C2.1734 15.967 2.45912 16.5016 2.87868 16.9211C3.29824 17.3407 3.83279 17.6264 4.41473 17.7422C4.99667 17.8579 5.59987 17.7985 6.14805 17.5714C6.69623 17.3444 7.16477 16.9599 7.49441 16.4665C7.82406 15.9732 8 15.3931 8 14.7998V1.7998C8 1.53459 8.10536 1.28023 8.2929 1.0927C8.48043 0.905161 8.73479 0.799805 9 0.799805Z" fill="black"/>
</svg>
