<svg width="24" height="24" viewBox="0 0 24 24" fill="none" xmlns="http://www.w3.org/2000/svg">
<g clip-path="url(#clip0_1_3173)">
<path d="M12 24C18.6274 24 24 18.6274 24 12C24 5.37258 18.6274 0 12 0C5.37258 0 0 5.37258 0 12C0 18.6274 5.37258 24 12 24Z" fill="#3D9635"/>
<path d="M3.53042 6.98617C3.49067 7.60642 3.43967 8.70367 3.90542 8.81467C4.47167 8.87317 4.15967 7.73392 4.36367 7.52692C4.40267 7.42642 4.47467 7.42642 4.47992 7.55317V8.52367C4.47203 8.62672 4.49986 8.72935 4.55873 8.8143C4.6176 8.89926 4.70391 8.96136 4.80317 8.99017C4.95317 8.97892 5.05067 8.98417 5.10842 9.14917C5.13342 9.70567 5.15667 10.2622 5.17817 10.8187C5.17817 10.8187 5.52392 10.9349 5.54042 9.88042C5.50588 9.46287 5.49511 9.04369 5.50817 8.62492C5.50817 8.50792 5.64317 8.49742 5.73917 8.56117C5.88917 8.67817 5.95367 8.82067 6.18317 8.76292C6.53417 8.65117 6.74267 8.46292 6.74867 8.15842C6.74003 7.86413 6.68693 7.57283 6.59117 7.29442C6.60617 7.24117 6.52142 7.10917 6.53942 7.05592C6.60167 7.16767 6.69617 7.15642 6.71717 7.05592C6.68309 6.8507 6.57667 6.66446 6.41717 6.53092C6.29267 6.40867 6.10892 6.43492 6.04217 6.69517C6.03517 7.02722 6.13624 7.35255 6.33017 7.62217C6.38998 7.76998 6.41438 7.92974 6.40142 8.08867C6.3548 8.11756 6.29872 8.12707 6.24519 8.11516C6.19165 8.10324 6.14489 8.07085 6.11492 8.02492C6.11492 8.02492 5.83292 7.78642 5.83292 7.73917C5.90119 7.49257 5.89308 7.23107 5.80967 6.98917C5.77856 6.84394 5.7161 6.70725 5.62667 6.58867C5.55767 6.49867 5.46317 6.49867 5.41817 6.58867C5.31895 6.91122 5.32685 7.25723 5.44067 7.57492C5.50292 7.78642 5.60342 7.91917 5.55767 7.91917C5.51867 8.04142 5.43917 8.00917 5.38217 7.87117C5.31365 7.57415 5.28116 7.26996 5.28542 6.96517C5.25917 6.72667 5.23067 6.21517 5.09192 6.08542C5.00717 5.95792 4.87967 6.02167 4.83467 6.14392C4.82387 6.37348 4.82863 6.6035 4.84892 6.83242C4.93193 7.19904 4.98982 7.57091 5.02217 7.94542C5.03417 8.47042 4.75367 8.17042 4.76567 7.90867C4.82558 7.57704 4.82227 7.23707 4.75592 6.90667C4.71017 6.76942 4.65617 6.73717 4.54292 6.76417C4.45292 6.75292 4.22567 7.03417 4.16192 7.50067C4.12856 7.65118 4.10352 7.80341 4.08692 7.95667C4.05392 8.19517 3.91367 8.36467 3.81542 7.91917C3.72842 7.59592 3.67742 6.80092 3.53492 6.98617" fill="white"/>
<path d="M5.07005 9.53037C4.5698 9.81162 4.0838 10.0659 3.5918 10.3306C3.67485 10.0653 3.82697 9.82683 4.03257 9.63968C4.23817 9.45253 4.48985 9.32343 4.7618 9.26562C5.0618 9.27613 4.9868 9.39837 5.07005 9.53037Z" fill="white"/>
<path d="M6.95621 6.02186C6.92357 6.02859 6.89185 6.03917 6.86171 6.05336C6.78519 6.07992 6.72188 6.135 6.68499 6.20711C6.6481 6.27921 6.64048 6.36277 6.66371 6.44036C6.80621 7.41536 6.89696 8.15786 7.03871 9.12761C7.06346 9.24461 6.97645 9.39311 6.86771 9.38261C6.68096 9.23936 6.63446 8.94761 6.31646 8.96336C6.18217 8.99052 6.0596 9.0586 5.96559 9.15825C5.87158 9.2579 5.81074 9.38423 5.79146 9.51986C5.74864 9.7297 5.74864 9.94603 5.79146 10.1559C5.84803 10.2378 5.93131 10.2976 6.02707 10.325C6.12283 10.3523 6.22512 10.3456 6.31646 10.3059C6.45596 10.2421 6.57221 10.0809 6.62171 10.1206C6.65246 10.1844 6.61721 10.6929 5.96321 11.0799C5.55896 11.2809 5.23946 11.3341 5.06321 10.9629C4.95821 10.7304 5.07145 9.84986 4.8097 10.0516C4.0312 12.3091 6.63146 12.6271 6.92321 10.1469C6.94196 10.0779 6.9982 10.0089 7.04096 10.0254C7.06046 10.0359 7.07396 10.0621 7.07846 10.1154C7.01846 12.3571 5.06771 12.5056 4.73696 11.8059C4.65678 11.5612 4.61726 11.3051 4.61996 11.0476C4.61966 10.9584 4.5919 10.8715 4.54046 10.7986C4.46096 10.7356 4.3552 10.9104 4.3312 11.2126C4.30734 11.3916 4.29956 11.5723 4.30796 11.7526C4.41146 13.5339 6.92396 12.7704 7.33421 11.3026C7.41509 10.8398 7.43777 10.3686 7.40171 9.90011H7.40996L7.41596 9.89486C7.67021 10.1949 8.01596 9.93161 8.09471 9.83111C8.10297 9.81613 8.11469 9.80332 8.12888 9.79375C8.14307 9.78417 8.15933 9.77811 8.17633 9.77606C8.19332 9.77401 8.21056 9.77603 8.22662 9.78195C8.24268 9.78787 8.25711 9.79752 8.26871 9.81011C8.31771 9.84935 8.37561 9.87593 8.43731 9.88749C8.49901 9.89906 8.56261 9.89526 8.6225 9.87644C8.68238 9.85761 8.73672 9.82434 8.7807 9.77955C8.82468 9.73476 8.85697 9.67983 8.87471 9.61961C8.91883 9.34044 8.94713 9.05899 8.95946 8.77661C8.86087 8.7981 8.76835 8.84141 8.68871 8.90336C8.67814 8.91547 8.67113 8.93027 8.66846 8.94611C8.65871 9.02111 8.64821 9.10511 8.63621 9.18461C8.63481 9.1917 8.63306 9.19871 8.63096 9.20561C8.62499 9.21511 8.61639 9.22267 8.6062 9.22736C8.59419 9.2355 8.58022 9.2403 8.56574 9.24125C8.55126 9.24221 8.53678 9.23929 8.5238 9.2328C8.51082 9.22631 8.4998 9.21648 8.49188 9.20432C8.48395 9.19216 8.4794 9.17811 8.47871 9.16361C8.41946 8.86361 8.17196 8.81336 8.02121 9.29036C7.91771 9.38636 7.73621 9.40211 7.71596 9.26936C7.74221 8.94611 7.62521 8.90336 7.39571 9.05186C7.32071 8.41586 7.24571 7.81211 7.17071 7.17686C7.26821 7.17686 7.35371 7.25636 7.44296 7.13411C7.36235 6.75744 7.2253 6.3951 7.03646 6.05936C7.03087 6.05178 7.02486 6.04452 7.01846 6.03761C7.01685 6.03749 7.01531 6.03694 7.01399 6.03601C7.01267 6.03509 7.01162 6.03383 7.01096 6.03236H7.00196C6.99746 6.02711 6.98996 6.02711 6.98921 6.02186C6.97721 6.02186 6.96671 6.01661 6.95621 6.02186ZM6.2572 9.50411C6.28773 9.50125 6.31829 9.50923 6.34353 9.52664C6.36876 9.54406 6.38706 9.56981 6.39521 9.59936C6.40438 9.62783 6.40657 9.65809 6.40161 9.68759C6.39665 9.71708 6.38468 9.74496 6.36671 9.76886C6.34646 9.80636 6.28045 9.79061 6.23096 9.79061C6.20597 9.79296 6.18087 9.7876 6.15902 9.77527C6.13717 9.76293 6.11961 9.74421 6.1087 9.72161C6.0907 9.66311 6.14021 9.60461 6.16421 9.55736C6.18821 9.51011 6.1687 9.54686 6.17245 9.54161C6.19687 9.52181 6.22613 9.50887 6.2572 9.50411Z" fill="white"/>
<path d="M8.70745 5.96851C8.64601 5.97451 8.58637 5.9926 8.53195 6.02176C8.46889 6.088 8.4293 6.17311 8.41928 6.26402C8.40925 6.35493 8.42934 6.44661 8.47645 6.52501C8.57545 6.57301 8.67445 6.69001 8.60695 6.75001C8.32945 7.08451 7.6012 7.65001 7.56445 7.75201V7.75726V7.76251H7.57045C7.75002 7.79319 7.93333 7.79497 8.11345 7.76776V7.76251C8.44143 7.44906 8.74248 7.10861 9.01345 6.74476C8.9767 6.70801 8.93845 6.68101 8.9017 6.64426C8.89294 6.63723 8.88587 6.62832 8.88102 6.6182C8.87616 6.60807 8.87364 6.59699 8.87364 6.58576C8.87364 6.57453 8.87616 6.56344 8.88102 6.55331C8.88587 6.54319 8.89294 6.53428 8.9017 6.52726C8.97239 6.4634 9.01521 6.37437 9.02096 6.27929C9.02671 6.18421 8.99493 6.09066 8.93245 6.01876C8.86367 5.98134 8.78552 5.96467 8.70745 5.97076M8.67295 6.26251C8.7187 6.25726 8.77195 6.31051 8.79895 6.37351C8.82595 6.43651 8.8132 6.51151 8.7682 6.52726C8.7232 6.54301 8.66095 6.49051 8.63095 6.42151C8.60095 6.35251 8.61745 6.27826 8.6647 6.26776C8.6647 6.26776 8.6647 6.26251 8.67295 6.26251Z" fill="white"/>
<path d="M3.64438 11.1314C3.51945 11.3515 3.44161 11.5952 3.41578 11.8469C3.38996 12.0987 3.41673 12.3531 3.49438 12.5939C3.5284 12.6433 3.57685 12.681 3.6331 12.7018C3.68935 12.7226 3.75066 12.7256 3.80863 12.7102C3.98188 12.6254 4.05988 12.2279 4.01713 12.0854C3.95938 11.9789 3.91363 11.9632 3.85438 12.0532C3.73363 12.3292 3.68188 12.1379 3.67063 11.9782C3.65661 11.7162 3.66766 11.4535 3.70363 11.1937C3.73438 10.9769 3.70363 11.0399 3.64288 11.1307" fill="white"/>
<path d="M15.506 10.3367C15.239 9.68415 14.867 9.0429 14.7492 8.79915C14.6315 8.5554 13.7382 7.09815 13.6062 6.92865C13.3152 6.54165 14.0772 7.0929 13.5095 6.3189C13.295 6.1119 13.2845 6.1014 13.0992 5.9319C13.0122 5.8569 12.788 5.7309 12.752 5.9424C12.7315 6.09608 12.7378 6.25215 12.7707 6.40365C12.8272 6.54419 12.9029 6.6762 12.9957 6.7959C13.9509 8.21607 14.7815 9.71615 15.4782 11.2794C15.6012 11.2164 15.575 10.4477 15.5022 10.3367" fill="white"/>
<path d="M14.3301 12.5092C14.2753 12.5729 14.4583 12.8639 14.6976 12.8587C15.0943 12.8114 15.4476 12.5587 15.7686 11.8942C15.9023 11.6672 15.9859 11.4143 16.0138 11.1524C16.0539 9.89653 15.9641 8.63987 15.7461 7.40242C15.7322 7.31612 15.7355 7.22793 15.7558 7.14292C15.7813 7.10617 15.8691 7.14292 15.9148 7.05817C15.9846 6.97867 15.7356 6.33217 15.5938 6.08317C15.5436 5.97142 15.5256 5.89792 15.4438 6.09367C15.3424 6.31625 15.2946 6.55951 15.3043 6.80392C15.4941 8.27767 15.5518 9.57892 15.6793 11.0489C15.7005 11.2003 15.6676 11.3544 15.5863 11.4839C15.2492 11.9146 14.8213 12.2657 14.3331 12.5122" fill="white"/>
<path d="M18.8868 14.6632C18.5995 14.8492 18.5995 15.066 18.8328 15.0712C19.0701 15.0769 19.3048 15.0208 19.5139 14.9084C19.7229 14.7959 19.8992 14.6311 20.0253 14.43C20.1394 14.169 20.2047 13.8894 20.218 13.605C20.2719 12.2497 20.1996 10.8923 20.002 9.55047C19.9766 9.42477 19.9633 9.29694 19.9623 9.16872C19.9893 9.09972 20.1175 9.17922 20.161 9.09372C20.2315 9.01872 19.8288 8.43147 19.6848 8.18247C19.6368 8.07072 19.6188 7.99647 19.5348 8.19822C19.4401 8.4204 19.4114 8.66517 19.4523 8.90322C19.6655 10.4217 19.7987 11.9503 19.8513 13.4827C19.8412 13.6106 19.8145 13.7367 19.7718 13.8577C19.6627 14.0439 19.532 14.2166 19.3825 14.3722C19.2505 14.478 18.9745 14.5837 18.8853 14.6632" fill="white"/>
<path d="M19.915 11.0626C19.9105 10.6876 19.9248 10.3628 19.9105 10.0816C19.8963 9.80034 19.7845 8.75109 19.7493 8.52909C19.714 8.30709 19.6698 7.96209 19.6158 7.69134C19.5843 7.53424 19.5678 7.37454 19.5663 7.21434C19.5873 7.13934 19.6795 7.21959 19.7208 7.12959C19.6736 6.71666 19.5462 6.31693 19.3458 5.95284C19.294 5.84184 19.1958 5.87784 19.0765 6.05934C18.9625 6.17559 19.0015 6.44034 19.0473 6.69534C19.3594 8.3534 19.5111 10.0377 19.5003 11.7248C19.4838 11.8576 19.9195 11.3168 19.915 11.0626Z" fill="white"/>
<path d="M17.8081 8.98434C17.6273 8.97909 17.2508 8.59209 17.1413 8.36484C17.1084 8.25438 17.1158 8.13581 17.1623 8.03034C17.2291 7.98309 17.3318 7.92459 17.4076 7.98309C17.4076 7.98309 17.4871 8.10459 17.4721 8.12109C17.5696 8.17359 17.6123 8.14209 17.6221 8.09409C17.6281 8.01909 17.5913 7.97259 17.5913 7.88784C17.6326 7.64934 17.8718 7.61709 17.9663 7.76559C18.0309 7.8939 18.0652 8.03524 18.0668 8.17884C18.0668 8.24784 17.9686 8.16834 17.9168 8.18409C17.8651 8.19984 17.8486 8.26959 17.8418 8.33409C17.8298 8.50884 17.8133 8.77959 17.8111 8.98584" fill="white"/>
<path d="M14.4924 11.481C14.5434 10.9665 14.4759 9.92771 14.4714 9.62621C14.4549 8.91596 14.3491 7.54271 14.3019 7.31471C14.2449 6.88046 14.4586 7.36271 14.4279 7.10846C14.3336 6.70161 14.1522 6.32007 13.8961 5.99021C13.8166 5.86271 13.8211 5.83646 13.6936 6.02171C13.6125 6.30665 13.6182 6.60931 13.7101 6.89096C13.8816 7.72292 13.9933 8.56607 14.0446 9.41396C14.0988 10.307 14.1055 11.2022 14.0649 12.096C14.2006 12.096 14.4174 11.847 14.4924 11.481Z" fill="white"/>
<path d="M20.5275 10.6597C20.2133 10.0597 19.7333 9.3607 19.6065 9.1222C19.4798 8.8837 18.3968 7.1032 18.2618 6.9472C17.8658 6.48595 18.4433 6.8722 18.1868 6.50695C18.0488 6.32169 17.892 6.15128 17.7188 5.99845C17.6265 5.9347 17.5688 5.80195 17.5388 6.01945C17.5224 6.21324 17.5177 6.40784 17.5245 6.6022C17.5454 6.73393 17.5996 6.85813 17.682 6.96295C18.7514 8.43019 19.7012 9.98092 20.5223 11.6002C20.6423 11.5372 20.601 10.7684 20.5268 10.6627" fill="white"/>
<path d="M16.6932 16.3365C16.6375 16.3532 16.5875 16.3854 16.5492 16.4292C16.5108 16.473 16.4855 16.5267 16.4762 16.5842C16.4669 16.6417 16.4739 16.7006 16.4965 16.7543C16.5191 16.808 16.5564 16.8542 16.604 16.8877C13.6452 16.8877 9.10398 16.8345 8.13423 16.8345C7.58748 16.8345 5.86623 16.7595 5.83398 16.7595C6.00513 17.0205 6.24601 17.2284 6.52931 17.3595C6.8126 17.4906 7.12696 17.5397 7.43673 17.5012C8.75223 17.5012 14.8385 17.4855 16.5687 17.4855C16.525 17.6034 16.512 17.7305 16.5312 17.8548C16.5504 17.9791 16.601 18.0965 16.6782 18.1957L16.685 18.201C16.6859 18.2029 16.6875 18.2044 16.6894 18.2053C16.6913 18.2063 16.6934 18.2066 16.6955 18.2062H16.7007C16.8162 18.2385 16.8665 18.1425 16.907 18.0795C17.3492 18.1042 17.7925 18.1024 18.2345 18.0742C18.2997 18.18 18.3657 18.2805 18.488 18.2647C18.704 18.2115 18.8735 18.1852 18.881 17.6925C18.881 17.6925 18.8585 16.8547 18.368 16.908C18.2517 16.9237 17.927 16.9612 17.927 16.9612C17.552 16.9132 17.2722 16.908 16.8492 16.8862C16.889 16.833 16.9565 16.605 16.8725 16.5255C16.8585 16.5138 16.8424 16.5049 16.825 16.4995C16.8076 16.4941 16.7894 16.4922 16.7712 16.494H16.763C16.763 16.494 16.7562 16.4887 16.754 16.4835V16.4782C16.7346 16.4317 16.7189 16.3838 16.7067 16.335H16.697M16.898 17.535C17.327 17.556 17.732 17.5402 18.1655 17.5612C18.1919 17.597 18.2052 17.6407 18.2031 17.6851C18.2011 17.7295 18.1838 17.7718 18.1542 17.805C18.1542 17.8102 18.1482 17.8102 18.1482 17.8102H18.1362C17.996 17.805 17.9157 17.805 17.7755 17.7997C17.7755 17.7892 17.771 17.784 17.771 17.7735C17.7365 17.6617 17.498 17.673 17.4395 17.763V17.7682V17.7787V17.7892C17.438 17.7944 17.438 17.7998 17.4395 17.805C17.2555 17.8167 17.0708 17.8096 16.8882 17.784C16.835 17.709 16.841 17.5717 16.9062 17.535" fill="white"/>
<path d="M9.20858 6.47775C8.92133 7.3995 9.37508 8.41725 9.68858 8.322C9.91358 8.4225 10.0583 7.935 10.1528 7.40475C10.2173 7.25475 10.2646 7.2405 10.2976 7.31475C10.2878 8.025 10.3418 8.184 10.5038 8.39625C10.5473 8.4429 10.5997 8.48029 10.658 8.50617C10.7162 8.53205 10.7791 8.5459 10.8428 8.54688C10.9066 8.54786 10.9699 8.53596 11.0289 8.51188C11.0879 8.4878 11.1415 8.45204 11.1863 8.40675C11.2096 8.38575 11.4676 8.094 11.4676 8.094C11.4812 8.07627 11.4986 8.06174 11.5184 8.05142C11.5383 8.04109 11.5602 8.03523 11.5825 8.03423C11.6049 8.03323 11.6272 8.03712 11.6479 8.04563C11.6686 8.05414 11.6872 8.06706 11.7023 8.0835C11.7856 8.16825 11.7773 8.322 11.9588 8.4225C12.0547 8.45995 12.1597 8.46738 12.2599 8.44381C12.3601 8.42023 12.4507 8.36677 12.5198 8.2905C12.6233 8.094 12.6458 8.025 12.6931 7.95075C12.7681 7.83975 12.8926 7.88775 12.8926 7.9245C12.8813 7.98825 12.8108 8.04675 12.8566 8.15775C12.9466 8.23275 12.9668 8.184 13.0193 8.16825C13.2023 8.06775 13.3403 7.62225 13.3403 7.62225C13.3463 7.45275 13.2653 7.4685 13.2083 7.506C13.1401 7.55325 13.1333 7.56975 13.0643 7.617C12.9758 7.6275 12.8018 7.6965 12.7178 7.548C12.6286 7.368 12.6286 7.11375 12.5596 6.93375C12.5596 6.92325 12.4448 6.6525 12.5528 6.63375C12.6061 6.64425 12.7216 6.681 12.7411 6.57C12.7996 6.46425 12.6188 6.15675 12.4966 6.00825C12.4747 5.97627 12.4457 5.94985 12.4118 5.93109C12.3779 5.91234 12.3401 5.90177 12.3014 5.90024C12.2627 5.89871 12.2242 5.90626 12.1889 5.92228C12.1537 5.9383 12.1226 5.96235 12.0983 5.9925C12.0273 6.0871 11.9898 6.2027 11.9918 6.321C11.9759 6.39781 11.9762 6.47707 11.9926 6.55377C12.009 6.63046 12.0412 6.70291 12.0871 6.7665C12.258 7.03627 12.3369 7.35413 12.3121 7.6725C12.2831 7.72445 12.2406 7.76761 12.1891 7.79745C12.1376 7.82728 12.0791 7.84267 12.0196 7.842C11.9446 7.821 11.8171 7.7835 11.7496 7.23225C11.7655 6.79815 11.7165 6.3641 11.6041 5.9445C11.5463 5.775 11.5058 5.61075 11.3656 5.9025C11.3045 5.99432 11.2653 6.09893 11.251 6.20828C11.2367 6.31764 11.2477 6.42881 11.2831 6.53325C11.3909 6.84813 11.4218 7.18425 11.3731 7.5135C11.3253 7.60837 11.2691 7.69873 11.2051 7.7835C11.1645 7.83661 11.1049 7.87186 11.0389 7.8818C10.9728 7.89174 10.9055 7.87558 10.8511 7.83675C10.7904 7.80251 10.739 7.7539 10.7015 7.69519C10.664 7.63648 10.6414 7.56946 10.6358 7.5C10.6608 7.13749 10.649 6.77338 10.6006 6.41325C10.5151 6.2115 10.3703 6.28575 10.3103 6.34425C10.0288 6.69884 9.84543 7.1212 9.77858 7.569C9.69608 7.86525 9.60833 7.7805 9.54758 7.659C9.39758 7.50525 9.38858 6.27525 9.20858 6.477" fill="white"/>
<path d="M10.1814 8.39115C10.1814 8.3964 10.1777 8.3964 10.1732 8.3964V8.40165C10.1544 8.41215 10.1297 8.44965 10.0802 8.49165C10.0382 8.54797 10.0083 8.61233 9.9923 8.68072C9.9763 8.74911 9.97455 8.82006 9.98717 8.88915C9.99092 8.91615 10.1447 9.3984 10.2782 9.74265C10.39 10.1152 10.4277 10.5061 10.3892 10.8931C10.1747 11.3904 9.81533 11.8115 9.35792 12.1014C9.29119 12.1351 9.21745 12.1527 9.14267 12.1527C9.06789 12.1527 8.99416 12.1351 8.92742 12.1014V12.0961C8.88613 12.0639 8.85377 12.0216 8.83343 11.9733C8.81308 11.925 8.80542 11.8722 8.81117 11.8201C9.2721 11.5363 9.63431 11.1173 9.84842 10.6201C9.94955 10.3404 9.95927 10.0358 9.87617 9.75015C9.85022 9.60541 9.78976 9.46906 9.69992 9.35265C9.69992 9.35265 9.69992 9.35265 9.69992 9.3474C9.75767 9.3159 9.90692 9.44265 9.93167 9.36315C9.88829 9.13507 9.78472 8.92273 9.63167 8.74815C9.6118 8.71898 9.58559 8.69468 9.555 8.67708C9.5244 8.65947 9.49023 8.64902 9.45502 8.64649C9.41982 8.64397 9.3845 8.64944 9.35171 8.6625C9.31891 8.67556 9.2895 8.69586 9.26567 8.7219C9.14192 8.8014 9.11567 9.08265 9.17342 9.33165C9.24092 9.51165 9.42317 9.5439 9.55292 9.9144V9.91965C9.57766 10.0485 9.56993 10.1815 9.53042 10.3066C9.31031 10.613 9.04911 10.8875 8.75417 11.1226L8.74892 11.1279V11.1339H8.74067C8.74067 11.1279 8.74067 11.1279 8.74067 11.1279C8.74355 11.0874 8.74355 11.0468 8.74067 11.0064C8.74067 10.9006 8.77892 10.6456 8.77592 10.5984V10.5931C8.55467 10.7574 8.47592 11.2554 8.43767 11.4039C7.87383 11.7553 7.34624 12.1618 6.86267 12.6174C6.66917 12.9519 8.19092 12.2251 8.36267 12.1404C8.36267 12.1404 8.36717 12.1404 8.36942 12.1456C8.40159 12.2551 8.44719 12.3602 8.50517 12.4584C8.594 12.5873 8.72066 12.6853 8.86764 12.7391C9.01463 12.7928 9.17468 12.7996 9.32567 12.7584C9.82531 12.5166 10.2394 12.1284 10.5129 11.6454C10.5579 11.5704 10.6307 11.5126 10.6959 11.5704C10.8532 11.8781 11.0947 12.1348 11.3923 12.3105C11.6899 12.4862 12.0313 12.5736 12.3767 12.5626C12.5664 12.3024 12.4772 12.1704 12.3992 12.1224C12.3744 12.1014 11.9889 11.9319 11.9304 11.7624C11.8937 11.6086 11.9829 11.4706 12.1682 11.3641C12.696 11.3094 13.2163 11.1975 13.7199 11.0304C13.738 10.8214 13.7958 10.6178 13.8902 10.4304C13.9097 10.3879 13.9399 10.3512 13.9779 10.3239C13.9779 10.3239 13.9779 10.3239 13.9779 10.3186V10.3134C13.9785 10.3099 13.9785 10.3064 13.9779 10.3029L13.8902 10.2444L12.2042 10.2339C12.1873 10.2273 12.1714 10.2185 12.1569 10.2076V10.2024V10.1971V10.1919V10.1866V10.1814C12.1569 10.1761 12.1569 10.1761 12.1569 10.1761C12.1701 10.1582 12.1888 10.145 12.2102 10.1386C12.6152 10.0801 13.3292 9.94815 13.3757 9.1689C13.388 9.08112 13.3822 8.99174 13.3587 8.90629C13.3351 8.82084 13.2942 8.74113 13.2386 8.67209C13.183 8.60306 13.1139 8.54617 13.0354 8.50494C12.9569 8.46371 12.8708 8.43902 12.7824 8.4324C12.6136 8.4686 12.4654 8.56887 12.3691 8.71211C12.2727 8.85535 12.2356 9.03039 12.2657 9.2004C12.2514 9.30165 12.2987 9.5079 12.2042 9.5289C11.5832 9.5979 10.9067 10.0329 10.8819 10.3456H10.8737L10.8692 10.3509H10.8609L10.8534 10.3456C10.8217 10.3261 10.7968 10.2973 10.782 10.263C10.7672 10.2288 10.7634 10.1909 10.7709 10.1544C10.7425 9.59018 10.5972 9.03801 10.3442 8.5329C10.2587 8.4324 10.2197 8.3949 10.1942 8.38965H10.1837M12.6489 9.08415C12.696 9.07931 12.7431 9.09243 12.7809 9.1209C12.8107 9.13593 12.8359 9.15855 12.8541 9.18647C12.8722 9.21439 12.8827 9.24663 12.8844 9.2799V9.2904V9.29565V9.30015C12.8844 9.30015 12.8784 9.3054 12.8739 9.31065C12.8409 9.3474 12.7689 9.34215 12.6969 9.29415C12.6692 9.27893 12.6454 9.25744 12.6274 9.2314C12.6094 9.20536 12.5978 9.17548 12.5934 9.14415V9.13815C12.5934 9.12765 12.5979 9.1224 12.6009 9.1224L12.6054 9.1119C12.6054 9.10665 12.6054 9.10665 12.6137 9.1014C12.6188 9.09617 12.6251 9.09207 12.6319 9.08936C12.6387 9.08665 12.6461 9.08538 12.6534 9.08565M11.0852 10.6861H11.1017C11.3341 10.7354 11.5701 10.7655 11.8074 10.7761C12.0032 10.7919 12.0999 10.9614 11.9169 11.0356C11.7339 11.1099 11.5622 11.1579 11.5622 11.4549C11.587 11.5378 11.587 11.6262 11.5622 11.7091C11.5622 11.7144 11.5577 11.7196 11.5547 11.7196V11.7249V11.7301H11.5494L11.5412 11.7354C11.5407 11.7369 11.5398 11.7381 11.5386 11.7391C11.5374 11.74 11.5359 11.7406 11.5344 11.7406C11.4894 11.7459 11.4272 11.6934 11.3792 11.6716C11.2501 11.5829 11.1415 11.4674 11.0608 11.3331C10.98 11.1988 10.929 11.0488 10.9112 10.8931C10.9089 10.868 10.9117 10.8426 10.9193 10.8186C10.9269 10.7945 10.9393 10.7722 10.9556 10.7529C10.9719 10.7337 10.9919 10.7178 11.0144 10.7064C11.0369 10.6949 11.0615 10.688 11.0867 10.6861" fill="white"/>
<path d="M5.65519 6.48818C5.85094 6.58868 6.21469 6.54668 6.19969 6.19643C6.19969 6.16493 6.19369 6.05918 6.19144 6.03218C6.15319 5.92643 6.04144 5.94743 6.01894 6.05918C6.01069 6.09068 6.03094 6.14918 6.00394 6.17018C5.97694 6.19118 5.92519 6.17543 5.92894 6.08018C5.92704 6.04944 5.91608 6.01996 5.89744 5.99543C5.89161 5.98893 5.88419 5.98406 5.87591 5.98129C5.86762 5.97853 5.85876 5.97798 5.85019 5.97968C5.82394 5.98493 5.82394 5.99018 5.81194 6.01643C5.80263 6.04194 5.79756 6.06879 5.79694 6.09593C5.79244 6.13268 5.77894 6.14393 5.75644 6.14918C5.73394 6.15443 5.73919 6.15443 5.71669 6.13868C5.70619 6.12218 5.68819 6.11693 5.68819 6.09068C5.6877 6.06222 5.68469 6.03386 5.67919 6.00593C5.66703 5.99016 5.64982 5.97904 5.63044 5.97443C5.52319 5.97443 5.51644 6.11168 5.52319 6.16493C5.51419 6.17543 5.51119 6.41918 5.65519 6.48818Z" fill="white"/>
<path d="M11.3537 9.20175C11.5479 9.303 12.0099 9.2445 11.8989 8.90175C11.8977 8.84683 11.8937 8.79201 11.8869 8.7375C11.8487 8.63175 11.7414 8.658 11.7152 8.7645C11.7092 8.80125 11.7302 8.85975 11.7024 8.88075C11.6747 8.90175 11.6229 8.88075 11.6274 8.7855C11.6255 8.75637 11.6145 8.72857 11.5959 8.706C11.5903 8.70012 11.5834 8.69563 11.5757 8.6929C11.568 8.69017 11.5598 8.68926 11.5517 8.69025C11.5262 8.6955 11.5262 8.70075 11.5112 8.727C11.503 8.75276 11.4982 8.77949 11.4969 8.8065C11.4969 8.844 11.4812 8.8545 11.4579 8.85975C11.4347 8.865 11.4414 8.865 11.4189 8.84925C11.3964 8.8335 11.3904 8.82825 11.3904 8.80125C11.3914 8.77246 11.3871 8.74373 11.3777 8.7165C11.3667 8.70021 11.3497 8.6889 11.3304 8.685C11.2254 8.685 11.2194 8.82225 11.2232 8.8755C11.2172 8.88075 11.2127 9.1245 11.3567 9.19875" fill="white"/>
<path d="M14.6762 8.07828C14.8697 8.17878 15.235 8.13153 15.22 7.77828C15.22 7.75203 15.214 7.64628 15.2117 7.61403C15.1705 7.51353 15.0617 7.53453 15.0392 7.64628C15.0302 7.67778 15.0505 7.73628 15.022 7.75203C15.0077 7.77303 14.947 7.76253 14.947 7.66203C14.9432 7.63172 14.9324 7.6027 14.9155 7.57728C14.9019 7.57197 14.8872 7.57017 14.8727 7.57203C14.8472 7.57203 14.8472 7.57728 14.8315 7.60353C14.8228 7.631 14.8177 7.65949 14.8165 7.68828C14.8165 7.72053 14.8022 7.73103 14.7775 7.73628C14.7527 7.74153 14.7572 7.74153 14.74 7.72578C14.7317 7.72074 14.7247 7.71372 14.7197 7.70535C14.7148 7.69697 14.7119 7.68751 14.7115 7.67778C14.7106 7.6474 14.7063 7.61722 14.6987 7.58778C14.6847 7.57741 14.6686 7.57024 14.6515 7.56678C14.5457 7.56678 14.5367 7.70403 14.5442 7.75203C14.5367 7.76253 14.5322 8.00628 14.677 8.07528" fill="white"/>
<path d="M16.3958 10.8931C16.2795 11.0857 16.2088 11.3023 16.1892 11.5264C16.1696 11.7506 16.2015 11.9762 16.2825 12.1861C16.355 12.4081 16.5031 12.5976 16.701 12.7216C16.7302 12.7533 16.7665 12.7777 16.807 12.7926C16.8474 12.8075 16.8909 12.8126 16.9337 12.8074C16.9765 12.8022 17.0174 12.7868 17.0532 12.7627C17.0889 12.7385 17.1183 12.7061 17.139 12.6683C17.337 12.4351 17.3423 11.8471 17.4338 11.7301C17.5013 11.5126 17.664 11.5501 17.7435 11.6453C17.8157 11.7581 17.913 11.8525 18.0278 11.9213C18.0654 11.966 18.1116 12.0027 18.1636 12.0292C18.2156 12.0558 18.2724 12.0718 18.3306 12.0762C18.3888 12.0806 18.4474 12.0733 18.5028 12.0549C18.5582 12.0364 18.6093 12.0071 18.6533 11.9686C18.8181 11.8641 18.9373 11.7012 18.987 11.5126C19.0596 10.6206 19.0679 9.72451 19.0118 8.83133C19.002 8.76758 18.8198 7.72883 18.8198 7.71758C18.8198 7.70633 18.7935 7.18808 18.7748 7.06583C18.7703 7.01333 18.7598 6.99683 18.807 7.00283C18.8565 7.05533 18.861 7.06058 18.8925 7.07108C18.942 7.08233 18.987 6.98633 18.9578 6.89633C18.8078 6.57833 18.648 6.25508 18.4935 5.94233C18.4583 5.89508 18.4088 5.85233 18.348 5.94758C18.3113 5.98555 18.2825 6.03042 18.2631 6.07959C18.2438 6.12876 18.2344 6.18126 18.2355 6.23408C18.2498 6.45908 18.285 6.69533 18.2978 6.92333C18.36 7.30958 18.4215 7.70183 18.4838 8.09408C18.5415 8.92658 18.5588 9.68933 18.6158 10.5218C18.6291 10.8227 18.5599 11.1215 18.4155 11.3858C18.4155 11.3858 18.2798 11.4811 18.186 11.3806C18.056 11.2224 17.942 11.0519 17.8455 10.8713C17.706 10.7288 17.613 10.7656 17.514 10.8713C17.2693 11.255 17.0745 11.6684 16.9343 12.1013C16.8848 12.1861 16.7505 12.2603 16.602 12.0961C16.4059 11.7287 16.3335 11.3079 16.3958 10.8961" fill="white"/>
<path d="M14.7644 6.03228C14.8593 6.11354 14.9324 6.21724 14.9771 6.33394C15.0217 6.45064 15.0365 6.57665 15.0201 6.70053C14.9849 6.93903 14.8941 7.20378 14.8266 7.16703C14.7591 7.13028 14.8746 6.92853 14.8079 6.71103C14.7666 6.56778 14.5311 6.31353 14.5559 6.23403C14.5458 6.20522 14.5441 6.17413 14.5512 6.14442C14.5582 6.11472 14.5736 6.08766 14.5955 6.06643C14.6175 6.04521 14.645 6.03071 14.6749 6.02466C14.7049 6.0186 14.7359 6.02125 14.7644 6.03228Z" fill="white"/>
<path d="M16.9578 11.1316C16.9737 10.7812 16.9614 10.43 16.921 10.0816C16.9105 9.80633 16.642 7.53158 16.585 7.32008C16.519 6.92333 16.8483 7.26758 16.81 7.03433C16.6975 6.74258 16.4148 6.31358 16.327 6.05933C16.2708 5.94758 16.294 5.85233 16.177 6.03233C16.0744 6.35394 16.0379 6.693 16.0698 7.02908C16.4061 8.60444 16.5849 10.2093 16.6038 11.8201C16.738 11.8201 16.8933 11.4758 16.9608 11.1316" fill="white"/>
<path d="M19.1118 8.75936C19.2745 8.85461 19.366 9.34736 19.3488 9.49061C19.318 9.75011 19.234 10.0314 19.1733 9.99386C19.1125 9.95636 19.186 9.60761 19.1545 9.50111C19.1163 9.34736 18.9025 9.06686 18.9243 8.98211C18.8808 8.80661 19.0188 8.73311 19.1118 8.75711" fill="white"/>
<path d="M8.13625 10.2301C8.28625 10.2938 8.37626 10.6598 8.36126 10.7656C8.33051 10.9561 8.25026 11.1578 8.19326 11.1406C8.13626 11.1233 8.20676 10.8541 8.17451 10.7746C8.16326 10.5788 7.94951 10.4746 7.95701 10.3928C7.91651 10.2391 8.04251 10.2128 8.13851 10.2338" fill="white"/>
<path d="M4.07682 5.91085C4.30182 5.98585 4.31382 6.3556 4.30182 6.46735C4.27107 6.6631 4.19082 6.87535 4.13232 6.8491C4.07382 6.82285 4.13232 6.55735 4.10082 6.4741C4.06857 6.35185 3.87582 6.1456 3.90132 6.08185C3.85782 5.9491 3.98607 5.88535 4.07907 5.91235" fill="white"/>
<path d="M8.5006 7.65982C8.41252 7.72909 8.35126 7.82681 8.32732 7.93627C8.30338 8.04573 8.31823 8.16011 8.36935 8.25982C8.39892 8.30397 8.44211 8.33723 8.49234 8.35456C8.54257 8.37189 8.59709 8.37234 8.6476 8.35582C8.81635 8.38207 8.9161 8.00032 8.9161 8.00032C8.9161 8.00032 8.92135 7.89457 8.72335 8.09557C8.63785 8.11732 8.62735 8.07982 8.6056 8.02657C8.58563 7.92741 8.59447 7.82461 8.6311 7.73032C8.66185 7.63432 8.59735 7.59232 8.5006 7.66132" fill="white"/>
<path d="M9.78744 5.76753C9.71239 5.82851 9.6505 5.90409 9.60551 5.98969C9.56052 6.07529 9.53336 6.16913 9.52569 6.26553C9.51894 6.39303 9.49719 6.39303 9.57294 6.47778C9.62919 6.56778 9.68469 6.55728 9.79419 6.48828C9.82234 6.46855 9.84626 6.44339 9.86455 6.41428C9.88284 6.38517 9.89513 6.3527 9.90069 6.31878C9.92769 6.16878 9.76269 6.38778 9.74019 6.22353C9.70494 6.06978 9.80994 6.01128 9.91119 5.85753C9.91119 5.75703 9.91119 5.68803 9.78744 5.76753Z" fill="white"/>
<path d="M10.8287 5.97462C10.7875 6.16466 10.7624 6.35785 10.7537 6.55212C10.723 6.69537 10.8895 6.75837 10.9622 6.57312C11.0372 6.37113 11.077 6.1578 11.08 5.94237C11.047 5.72487 10.915 5.73612 10.8287 5.97462Z" fill="white"/>
<path d="M17.377 9.72163C17.401 9.69988 18.2995 8.97913 18.2995 8.97913C18.3918 8.94238 18.3745 9.35413 18.3303 9.34513C18.0578 9.64783 17.7354 9.90152 17.377 10.0951C17.3335 10.1274 17.2885 9.81463 17.377 9.72463" fill="white"/>
<path d="M18.198 9.71625C18.3585 9.80625 18.423 10.3252 18.4035 10.4662C18.4095 10.7422 18.2535 10.9642 18.189 10.9327C18.1245 10.9012 18.1958 10.5885 18.165 10.4767C18.0955 10.3079 18.0452 10.1318 18.015 9.95175C17.97 9.77625 18.1005 9.681 18.1973 9.71325" fill="white"/>
<path d="M12.8438 11.9634C12.9177 11.8695 13.0037 11.7858 13.0996 11.7144C13.1284 11.6999 13.1614 11.6956 13.193 11.7023C13.2246 11.709 13.253 11.7262 13.2736 11.7511C13.2893 11.8471 13.2181 11.9424 13.2406 12.0744C13.2586 12.1276 13.2736 12.1914 13.3606 12.1651C13.4173 12.115 13.4837 12.0769 13.5556 12.0531C13.6276 12.0294 13.7036 12.0206 13.7791 12.0271C13.8916 12.0271 13.8923 12.2386 13.8256 12.2386C13.6276 12.2931 13.436 12.3685 13.2541 12.4636C13.2286 12.482 13.1968 12.4895 13.1658 12.4846C13.1348 12.4797 13.1069 12.4627 13.0883 12.4374C13.0709 12.4101 13.0604 12.379 13.0576 12.3467C13.0549 12.3144 13.06 12.282 13.0726 12.2521C13.0801 12.1456 13.0418 12.0879 12.9616 12.0931C12.9016 12.1351 12.8498 12.1561 12.8198 12.0826C12.8093 12.0241 12.8048 11.9926 12.8438 11.9604" fill="white"/>
<path d="M19.1445 12.2444C19.17 12.2706 19.1843 12.3057 19.1843 12.3423C19.1843 12.3789 19.17 12.414 19.1445 12.4402C19.08 12.5092 19.0373 12.5407 18.9728 12.6097C18.9443 12.6682 18.9255 12.7529 19.0155 12.7792C19.1828 12.8324 19.5728 12.5542 19.5728 12.5407C19.5936 12.5217 19.6083 12.4969 19.6149 12.4695C19.6214 12.442 19.6195 12.4133 19.6095 12.3869C19.5728 12.3397 19.491 12.3659 19.4363 12.3659C19.4078 12.3659 19.3215 12.3449 19.3613 12.2654C19.3901 12.2181 19.4137 12.1678 19.4318 12.1154C19.4565 12.0464 19.437 12.0044 19.3388 11.9654C19.2593 11.9523 19.1782 11.9523 19.0988 11.9654C19.041 11.9812 19.0238 12.0134 19.0103 12.0877C19.014 12.2039 19.0785 12.1987 19.146 12.2467" fill="white"/>
</g>
<defs>
<clipPath id="clip0_1_3173">
<rect width="24" height="24" fill="white"/>
</clipPath>
</defs>
</svg>
